# xmcd CD database file
#
# Track frame offsets:
#	150
#	58593
#	106295
#	123563
#	139764
#	157047
#	184719
#	220522
#	239748
#	258710
#	280363
#	303468
#	322821
#	342789
#
# Disc length: 4793 seconds
#
# Revision: 1
# Processed by: cddbd v1.5.2PL0 Copyright (c) Steve Scherf et al.
# Submitted via: CDex 1.70beta1
#
DISCID=d312b70e
DTITLE=Various Artist - Les Trésors du Jazz - CD 57
DYEAR=1956
DGENRE=Jazz
TTITLE0=Jackie McLean - Lights Out
TTITLE1=Charles Mingus Jazz Workshop - Pithecanthropus Erectus
TTITLE2=Carls Perkins - Way Cross Town
TTITLE3=Art Tatum - Buddy DeFranco Quartet - Makin' Whoopee
TTITLE4=Ella Fitzgerald - Buddy Bregman's Orchestra - Too Darn Hot
TTITLE5=John Lewis - Bill Perkins - Two Degrees East Three Degrees West
TTITLE6=Shelly Manne And His Friends - Collard Greens And Black-Eyed Peas
TTITLE7=Stan Kenton And His Orchestra - Intermission Riff
TTITLE8=Chico Hamilton Quintet - Sleepy Slept There
TTITLE9=Chico Hamilton Quintet - Topsy
TTITLE10=Clifford Brown - Max Roach - Time
TTITLE11=Clifford Brown - Max Roach - Love is a many splendored thing
TTITLE12=Jimmy Smith at the Organ - Midnight Sun
TTITLE13=Lou Levy - Cheek to Cheek
EXTD=YEAR: 1956
EXTT0=
EXTT1=
EXTT2=
EXTT3=
EXTT4=
EXTT5=
EXTT6=
EXTT7=
EXTT8=
EXTT9=
EXTT10=
EXTT11=
EXTT12=
EXTT13=
PLAYORDER=
